<?xml version="1.0" standalone="no"?>
<!DOCTYPE svg PUBLIC "-//W3C//DTD SVG 20010904//EN"
 "http://www.w3.org/TR/2001/REC-SVG-20010904/DTD/svg10.dtd">
<svg version="1.0" xmlns="http://www.w3.org/2000/svg"
 width="16.000000pt" height="16.000000pt" viewBox="0 0 16.000000 16.000000"
 preserveAspectRatio="xMidYMid meet">
<metadata>
Created by potrace 1.11, written by Peter Selinger 2001-2013
</metadata>
<g transform="translate(0.000000,16.000000) scale(0.002286,-0.002286)"
fill="#000000" stroke="none">
<path d="M10 5927 c0 -7 67 -116 180 -291 97 -151 363 -514 525 -716 55 -69
105 -132 112 -140 55 -70 109 -134 327 -385 139 -159 168 -190 341 -373 110
-117 404 -410 511 -511 44 -41 108 -102 144 -136 36 -34 124 -112 195 -175 72
-62 132 -116 135 -119 11 -14 254 -215 370 -307 142 -112 348 -267 495 -372
55 -40 105 -77 112 -82 75 -62 687 -448 851 -536 29 -16 61 -33 70 -39 105
-62 405 -216 587 -300 475 -222 1059 -431 1480 -529 61 -15 121 -29 135 -33
14 -3 27 -7 30 -8 6 -1 67 -14 100 -20 14 -3 48 -9 75 -15 57 -12 78 -16 154
-30 30 -5 56 -10 58 -10 2 0 3 138 3 308 l0 307 -93 34 c-237 87 -540 241
-782 399 -84 55 -223 153 -260 184 -5 5 -39 31 -75 60 -237 187 -514 457 -730
714 -14 16 -46 54 -71 84 -41 50 -219 287 -262 350 -357 527 -600 1007 -777
1538 -67 203 -144 497 -164 636 -4 21 -8 48 -11 60 -2 12 -6 44 -9 71 -3 28
-8 61 -11 75 -3 14 -8 88 -11 165 -4 77 -9 142 -11 145 -8 9 -3723 6 -3723 -3z"/>
<path d="M4696 4963 c19 -48 44 -113 56 -143 45 -116 150 -366 183 -437 19
-40 35 -76 35 -78 0 -12 223 -460 274 -549 31 -54 56 -100 56 -102 0 -1 34
-60 76 -131 451 -755 958 -1279 1537 -1587 l87 -47 0 925 0 924 -132 32 c-290
72 -536 165 -873 330 -453 223 -886 526 -1255 880 -81 78 -82 78 -44 -17z"/>
</g>
</svg>
